<?xml version="1.0" encoding="UTF-8" standalone="no"?>
<svg
   width="324"
   height="324"
   viewBox="0 0 209.28957 209.02083"
   version="1.1"
   id="svg83"
   inkscape:version="1.2.2 (732a01da63, 2022-12-09)"
   sodipodi:docname="altemulator.svg"
   xmlns:inkscape="http://www.inkscape.org/namespaces/inkscape"
   xmlns:sodipodi="http://sodipodi.sourceforge.net/DTD/sodipodi-0.dtd"
   xmlns="http://www.w3.org/2000/svg"
   xmlns:svg="http://www.w3.org/2000/svg"
   xmlns:rdf="http://www.w3.org/1999/02/22-rdf-syntax-ns#"
   xmlns:cc="http://creativecommons.org/ns#">
  <defs
     id="defs42" />
  <sodipodi:namedview
     id="base"
     pagecolor="#ffffff"
     bordercolor="#666666"
     borderopacity="1.0"
     inkscape:pageopacity="0.0"
     inkscape:pageshadow="2"
     inkscape:zoom="1.4"
     inkscape:cx="445.71429"
     inkscape:cy="208.57143"
     inkscape:document-units="mm"
     inkscape:current-layer="text4179-5"
     inkscape:document-rotation="0"
     showgrid="false"
     inkscape:window-width="1920"
     inkscape:window-height="1009"
     inkscape:window-x="-8"
     inkscape:window-y="-8"
     inkscape:window-maximized="1"
     units="px"
     showguides="true"
     inkscape:guide-bbox="true"
     inkscape:pagecheckerboard="0"
     inkscape:showpageshadow="0"
     inkscape:deskcolor="#d1d1d1">
    <sodipodi:guide
       position="-28.011951,347.43141"
       orientation="500.00005,0"
       id="guide19"
       inkscape:locked="false" />
    <sodipodi:guide
       position="236.57142,215.13973"
       orientation="-500.00005,0"
       id="guide23"
       inkscape:locked="false" />
    <sodipodi:guide
       position="168.78072,133.78446"
       orientation="1,0"
       id="guide888"
       inkscape:locked="false" />
    <sodipodi:guide
       position="157.28813,144.74251"
       orientation="0,-1"
       id="guide890"
       inkscape:locked="false" />
    <sodipodi:guide
       position="86.728969,51.599082"
       orientation="0,-1"
       id="guide892"
       inkscape:locked="false" />
    <sodipodi:guide
       position="45.168554,90.085893"
       orientation="1,0"
       id="guide894"
       inkscape:locked="false" />
  </sodipodi:namedview>
  <metadata
     id="metadata80">
    <rdf:RDF>
      <cc:Work
         rdf:about="" />
    </rdf:RDF>
  </metadata>
  <g
     inkscape:groupmode="layer"
     id="layer1"
     inkscape:label="shadow1"
     style="opacity:1"
     sodipodi:insensitive="true">
    <circle
       id="path31-3"
       cx="108.621"
       cy="104.51"
       style="fill:#2d2d2d;fill-opacity:0.25;stroke-width:0.306422"
       r="101.27119" />
  </g>
  <g
     inkscape:groupmode="layer"
     id="g880"
     inkscape:label="shadow2"
     style="opacity:1"
     sodipodi:insensitive="true">
    <circle
       id="circle878"
       cx="108.621"
       cy="104.51"
       style="fill:#2d2d2d;fill-opacity:0.125;stroke-width:0.312173"
       r="103.17193" />
  </g>
  <g
     inkscape:groupmode="layer"
     id="g884"
     inkscape:label="shadow3"
     style="opacity:1"
     sodipodi:insensitive="true">
    <circle
       id="circle882"
       cx="108.621"
       cy="104.51"
       style="fill:#2d2d2d;fill-opacity:0.0625;stroke-width:0.322806"
       r="106.686" />
  </g>
  <g
     inkscape:groupmode="layer"
     id="layer3"
     inkscape:label="sketch"
     style="opacity:1" />
  <g
     inkscape:groupmode="layer"
     id="layer2"
     inkscape:label="bg"
     style="opacity:1" />
  <g
     inkscape:groupmode="layer"
     id="layer4"
     inkscape:label="text">
    <circle
       id="path31"
       cx="108.62084"
       cy="104.51041"
       style="fill:#505050;fill-opacity:1;stroke-width:0.302576"
       r="100" />
    <path
       d="m 70.516617,57.938704 v 8.467643 H 53.581492 v 76.208293 h 16.935125 v 8.46748 h 8.467643 v -8.46748 h 8.467642 v 8.46748 h 8.467483 v -8.46748 h 8.467645 v 8.46748 h 8.46764 v -8.46748 h 8.46749 v 8.46748 h 8.46764 v -8.46748 h 8.46764 v 8.46748 h 8.46748 v -8.46748 h 16.93529 V 66.406347 h -16.93529 v -8.467643 h -8.46748 v 8.467643 h -8.46764 v -8.467643 h -8.46764 v 8.467643 h -8.46749 v -8.467643 h -8.46764 v 8.467643 h -8.467645 v -8.467643 h -8.467483 v 8.467643 H 78.98426 V 57.938704 Z M 62.049134,74.873829 H 155.19256 V 134.14699 H 62.049134 Z m 12.701384,8.467643 c -2.331933,0 -4.233901,1.901967 -4.233901,4.233741 0,2.331935 1.901968,4.233902 4.233901,4.233902 2.331935,0 4.233742,-1.901967 4.233742,-4.233902 0,-2.331774 -1.901807,-4.233741 -4.233742,-4.233741 z m 16.935125,0 c -2.331933,0 -4.233741,1.901967 -4.233741,4.233741 0,2.331935 1.901808,4.233902 4.233741,4.233902 2.331935,0 4.233742,-1.901967 4.233742,-4.233902 0,-2.331774 -1.901807,-4.233741 -4.233742,-4.233741 z m 16.935127,0 c -2.33177,0 -4.23374,1.901967 -4.23374,4.233741 0,2.331935 1.90197,4.233902 4.23374,4.233902 2.33193,0 4.2339,-1.901967 4.2339,-4.233902 0,-2.331774 -1.90197,-4.233741 -4.2339,-4.233741 z m 16.93528,0 c -2.33192,0 -4.23389,1.901967 -4.23389,4.233741 0,2.331935 1.90197,4.233902 4.23389,4.233902 2.33194,0 4.23375,-1.901967 4.23375,-4.233902 0,-2.331774 -1.90181,-4.233741 -4.23375,-4.233741 z m 16.93513,0 c -2.33194,0 -4.23374,1.901967 -4.23374,4.233741 0,2.331935 1.9018,4.233902 4.23374,4.233902 2.33194,0 4.23374,-1.901967 4.23374,-4.233902 0,-2.331774 -1.9018,-4.233741 -4.23374,-4.233741 z M 74.750518,100.27659 c -2.331933,0 -4.233901,1.90197 -4.233901,4.2339 0,2.33177 1.901968,4.23374 4.233901,4.23374 2.331935,0 4.233742,-1.90197 4.233742,-4.23374 0,-2.33193 -1.901807,-4.2339 -4.233742,-4.2339 z m 67.740662,0 c -2.33194,0 -4.23374,1.90197 -4.23374,4.2339 0,2.33177 1.9018,4.23374 4.23374,4.23374 2.33194,0 4.23374,-1.90197 4.23374,-4.23374 0,-2.33193 -1.9018,-4.2339 -4.23374,-4.2339 z m -67.740662,16.93528 c -2.331933,0 -4.233901,1.90181 -4.233901,4.23374 0,2.33194 1.901968,4.23374 4.233901,4.23374 2.331935,0 4.233742,-1.9018 4.233742,-4.23374 0,-2.33193 -1.901807,-4.23374 -4.233742,-4.23374 z m 16.935125,0 c -2.331933,0 -4.233741,1.90181 -4.233741,4.23374 0,2.33194 1.901808,4.23374 4.233741,4.23374 2.331935,0 4.233742,-1.9018 4.233742,-4.23374 0,-2.33193 -1.901807,-4.23374 -4.233742,-4.23374 z m 16.935127,0 c -2.33177,0 -4.23374,1.90181 -4.23374,4.23374 0,2.33194 1.90197,4.23374 4.23374,4.23374 2.33193,0 4.2339,-1.9018 4.2339,-4.23374 0,-2.33193 -1.90197,-4.23374 -4.2339,-4.23374 z m 16.93528,0 c -2.33192,0 -4.23389,1.90181 -4.23389,4.23374 0,2.33194 1.90197,4.23374 4.23389,4.23374 2.33194,0 4.23375,-1.9018 4.23375,-4.23374 0,-2.33193 -1.90181,-4.23374 -4.23375,-4.23374 z m 16.93513,0 c -2.33194,0 -4.23374,1.90181 -4.23374,4.23374 0,2.33194 1.9018,4.23374 4.23374,4.23374 2.33194,0 4.23374,-1.9018 4.23374,-4.23374 0,-2.33193 -1.9018,-4.23374 -4.23374,-4.23374 z"
       id="path861"
       style="fill:#1c945c;fill-opacity:1;stroke:#1c945c;stroke-width:3.1;stroke-linecap:square;stroke-linejoin:miter;stroke-miterlimit:0;stroke-dasharray:none;stroke-opacity:1;paint-order:normal"
       inkscape:original-d="m 70.516617,57.938704 v 8.467643 H 53.581492 v 76.208293 h 16.935125 v 8.46748 h 8.467643 v -8.46748 h 8.467642 v 8.46748 h 8.467483 v -8.46748 h 8.467645 v 8.46748 h 8.46764 v -8.46748 h 8.46749 v 8.46748 h 8.46764 v -8.46748 h 8.46764 v 8.46748 h 8.46748 v -8.46748 h 16.93529 V 66.406347 h -16.93529 v -8.467643 h -8.46748 v 8.467643 h -8.46764 v -8.467643 h -8.46764 v 8.467643 h -8.46749 v -8.467643 h -8.46764 v 8.467643 h -8.467645 v -8.467643 h -8.467483 v 8.467643 H 78.98426 V 57.938704 Z M 62.049134,74.873829 H 155.19256 V 134.14699 H 62.049134 Z m 12.701384,8.467643 c -2.331933,0 -4.233901,1.901967 -4.233901,4.233741 0,2.331935 1.901968,4.233902 4.233901,4.233902 2.331935,0 4.233742,-1.901967 4.233742,-4.233902 0,-2.331774 -1.901807,-4.233741 -4.233742,-4.233741 z m 16.935125,0 c -2.331933,0 -4.233741,1.901967 -4.233741,4.233741 0,2.331935 1.901808,4.233902 4.233741,4.233902 2.331935,0 4.233742,-1.901967 4.233742,-4.233902 0,-2.331774 -1.901807,-4.233741 -4.233742,-4.233741 z m 16.935127,0 c -2.33177,0 -4.23374,1.901967 -4.23374,4.233741 0,2.331935 1.90197,4.233902 4.23374,4.233902 2.33193,0 4.2339,-1.901967 4.2339,-4.233902 0,-2.331774 -1.90197,-4.233741 -4.2339,-4.233741 z m 16.93528,0 c -2.33192,0 -4.23389,1.901967 -4.23389,4.233741 0,2.331935 1.90197,4.233902 4.23389,4.233902 2.33194,0 4.23375,-1.901967 4.23375,-4.233902 0,-2.331774 -1.90181,-4.233741 -4.23375,-4.233741 z m 16.93513,0 c -2.33194,0 -4.23374,1.901967 -4.23374,4.233741 0,2.331935 1.9018,4.233902 4.23374,4.233902 2.33194,0 4.23374,-1.901967 4.23374,-4.233902 0,-2.331774 -1.9018,-4.233741 -4.23374,-4.233741 z M 74.750518,100.27659 c -2.331933,0 -4.233901,1.90197 -4.233901,4.2339 0,2.33177 1.901968,4.23374 4.233901,4.23374 2.331935,0 4.233742,-1.90197 4.233742,-4.23374 0,-2.33193 -1.901807,-4.2339 -4.233742,-4.2339 z m 67.740662,0 c -2.33194,0 -4.23374,1.90197 -4.23374,4.2339 0,2.33177 1.9018,4.23374 4.23374,4.23374 2.33194,0 4.23374,-1.90197 4.23374,-4.23374 0,-2.33193 -1.9018,-4.2339 -4.23374,-4.2339 z m -67.740662,16.93528 c -2.331933,0 -4.233901,1.90181 -4.233901,4.23374 0,2.33194 1.901968,4.23374 4.233901,4.23374 2.331935,0 4.233742,-1.9018 4.233742,-4.23374 0,-2.33193 -1.901807,-4.23374 -4.233742,-4.23374 z m 16.935125,0 c -2.331933,0 -4.233741,1.90181 -4.233741,4.23374 0,2.33194 1.901808,4.23374 4.233741,4.23374 2.331935,0 4.233742,-1.9018 4.233742,-4.23374 0,-2.33193 -1.901807,-4.23374 -4.233742,-4.23374 z m 16.935127,0 c -2.33177,0 -4.23374,1.90181 -4.23374,4.23374 0,2.33194 1.90197,4.23374 4.23374,4.23374 2.33193,0 4.2339,-1.9018 4.2339,-4.23374 0,-2.33193 -1.90197,-4.23374 -4.2339,-4.23374 z m 16.93528,0 c -2.33192,0 -4.23389,1.90181 -4.23389,4.23374 0,2.33194 1.90197,4.23374 4.23389,4.23374 2.33194,0 4.23375,-1.9018 4.23375,-4.23374 0,-2.33193 -1.90181,-4.23374 -4.23375,-4.23374 z m 16.93513,0 c -2.33194,0 -4.23374,1.90181 -4.23374,4.23374 0,2.33194 1.9018,4.23374 4.23374,4.23374 2.33194,0 4.23374,-1.9018 4.23374,-4.23374 0,-2.33193 -1.9018,-4.23374 -4.23374,-4.23374 z" />
    <g
       aria-label="Alternative Emulator"
       id="text4179-5"
       style="font-size:80.9597px;line-height:1.1;font-family:Ubuntu;-inkscape-font-specification:Ubuntu;text-align:center;letter-spacing:0px;word-spacing:0px;text-anchor:middle;fill:#f4f4f4;stroke-width:0.645955"
       transform="translate(-1.0767661)">
      <path
         d="m 289.18562,90.868706 q -1.37632,-3.643187 -2.59072,-7.124454 -1.21439,-3.562227 -2.50975,-7.205413 h -25.42134 l -5.10046,14.329867 h -8.17693 q 3.23838,-8.905567 6.07197,-16.43482 2.83359,-7.610212 5.50526,-14.410827 2.75263,-6.800614 5.4243,-12.953552 2.67167,-6.233897 5.58622,-12.305874 h 7.20542 q 2.91455,6.071977 5.58622,12.305874 2.67167,6.152938 5.34334,12.953552 2.75263,6.800615 5.58622,14.410827 2.83359,7.529253 6.07197,16.43482 z m -7.36734,-20.806644 q -2.59071,-7.043494 -5.18142,-13.601229 -2.50975,-6.638696 -5.26238,-12.710674 -2.83359,6.071978 -5.4243,12.710674 -2.50975,6.557735 -5.0195,13.601229 z"
         style="text-align:start;text-anchor:start"
         id="path123836" />
      <path
         d="m 317.52136,91.678303 q -6.96253,-0.16192 -9.87708,-2.995509 -2.91455,-2.83359 -2.91455,-8.824608 V 29.339333 l 7.52925,-1.295356 v 50.599814 q 0,1.862073 0.32384,3.076468 0.32384,1.214396 1.05248,1.943033 0.72864,0.728638 1.94303,1.133436 1.2144,0.323839 2.99551,0.566718 z"
         style="text-align:start;text-anchor:start"
         id="path123838" />
      <path
         d="m 334.03705,48.769661 h 15.94906 v 6.314857 h -15.94906 v 19.430328 q 0,3.157428 0.48576,5.262381 0.48575,2.023992 1.45727,3.238388 0.97152,1.133436 2.42879,1.619194 1.45728,0.485758 3.40031,0.485758 3.40031,0 5.4243,-0.728637 2.10495,-0.809597 2.91455,-1.133436 l 1.45727,6.233897 q -1.13343,0.566718 -3.96702,1.376315 -2.83359,0.890556 -6.47678,0.890556 -4.29086,0 -7.12445,-1.052476 -2.75263,-1.133435 -4.45279,-3.319347 -1.70015,-2.185912 -2.42879,-5.343341 -0.64768,-3.238388 -0.64768,-7.448292 V 37.030504 l 7.52926,-1.295355 z"
         style="text-align:start;text-anchor:start"
         id="path123840" />
      <path
         d="m 356.38178,69.900143 q 0,-5.586219 1.6192,-9.715164 1.61919,-4.209905 4.29086,-6.962534 2.67167,-2.75263 6.15294,-4.128945 3.48127,-1.376315 7.12445,-1.376315 8.50077,0 13.03451,5.34334 4.53375,5.262381 4.53375,16.110981 0,0.485758 0,1.295355 0,0.728637 -0.081,1.376315 h -28.82166 q 0.48576,6.557736 3.80511,9.958043 3.31935,3.400308 10.36284,3.400308 3.96703,0 6.6387,-0.647678 2.75263,-0.728637 4.12894,-1.376315 l 1.05248,6.314857 q -1.37632,0.728637 -4.85758,1.538234 -3.40031,0.809597 -7.77214,0.809597 -5.50525,0 -9.55324,-1.619194 -3.96703,-1.700154 -6.55774,-4.614703 -2.59071,-2.914549 -3.88606,-6.881574 -1.2144,-4.047986 -1.2144,-8.824608 z m 28.90262,-4.128945 q 0.081,-5.100461 -2.59071,-8.338849 -2.59071,-3.319348 -7.20542,-3.319348 -2.59071,0 -4.6147,1.052476 -1.94303,0.971517 -3.31935,2.590711 -1.37631,1.619194 -2.18591,3.724146 -0.72864,2.104952 -0.97152,4.290864 z"
         style="text-align:start;text-anchor:start"
         id="path123842" />
      <path
         d="m 419.53019,47.879104 q 0.97152,0 2.18592,0.16192 1.29535,0.08096 2.50975,0.323838 1.21439,0.16192 2.18591,0.404799 1.05247,0.161919 1.53823,0.323839 l -1.29535,6.557736 q -0.89056,-0.323839 -2.99551,-0.728638 -2.02399,-0.485758 -5.26238,-0.485758 -2.10495,0 -4.20991,0.485758 -2.02399,0.404799 -2.67167,0.566718 v 35.37939 h -7.52925 V 50.550774 q 2.67167,-0.971516 6.6387,-1.781113 3.96702,-0.890557 8.90556,-0.890557 z"
         style="text-align:start;text-anchor:start"
         id="path123844" />
      <path
         d="m 435.23636,49.984056 q 2.59071,-0.647677 6.88157,-1.376314 4.29087,-0.728638 9.87709,-0.728638 5.0195,0 8.33885,1.457275 3.31934,1.376315 5.26238,3.967025 2.02399,2.509751 2.83359,6.071978 0.80959,3.562227 0.80959,7.853091 v 23.640233 h -7.52925 V 68.847667 q 0,-3.886066 -0.56672,-6.638696 -0.48576,-2.752629 -1.70015,-4.452783 -1.2144,-1.700154 -3.23839,-2.428791 -2.02399,-0.809597 -5.0195,-0.809597 -1.2144,0 -2.50975,0.08096 -1.29536,0.08096 -2.50975,0.24288 -1.13344,0.08096 -2.10495,0.242879 -0.89056,0.161919 -1.29536,0.242879 v 35.541309 h -7.52925 z"
         style="text-align:start;text-anchor:start"
         id="path123846" />
      <path
         d="m 495.95609,85.444406 q 2.67167,0 4.69566,-0.08096 2.10496,-0.161919 3.48127,-0.485758 V 72.328934 q -0.8096,-0.404798 -2.67167,-0.647678 -1.78111,-0.323838 -4.37182,-0.323838 -1.70016,0 -3.64319,0.242879 -1.86207,0.242879 -3.48127,1.052476 -1.53823,0.728637 -2.59071,2.104952 -1.05247,1.295355 -1.05247,3.481267 0,4.047985 2.59071,5.667179 2.59071,1.538235 7.04349,1.538235 z m -0.64768,-37.727221 q 4.53375,0 7.61022,1.214395 3.15742,1.133436 5.0195,3.319348 1.94303,2.104952 2.75263,5.100461 0.80959,2.91455 0.80959,6.476776 v 26.311903 q -0.97151,0.16192 -2.75263,0.485759 -1.70015,0.242879 -3.88606,0.485758 -2.18591,0.242879 -4.77662,0.404798 -2.50975,0.242879 -5.01951,0.242879 -3.56222,0 -6.55773,-0.728637 -2.99551,-0.728637 -5.18142,-2.266871 -2.18591,-1.619195 -3.40031,-4.209905 -1.2144,-2.59071 -1.2144,-6.233897 0,-3.481267 1.37632,-5.991018 1.45727,-2.509751 3.88607,-4.047985 2.42879,-1.538234 5.66717,-2.266872 3.23839,-0.728637 6.80062,-0.728637 1.13344,0 2.34783,0.161919 1.2144,0.08096 2.26687,0.323839 1.13344,0.16192 1.94304,0.323839 0.80959,0.161919 1.13343,0.242879 v -2.104952 q 0,-1.862073 -0.4048,-3.643187 -0.4048,-1.862073 -1.45727,-3.238388 -1.05248,-1.457274 -2.91455,-2.266871 -1.78111,-0.890557 -4.69566,-0.890557 -3.72415,0 -6.55774,0.566718 -2.75263,0.485758 -4.12894,1.052476 l -0.89056,-6.233897 q 1.45727,-0.647678 4.85758,-1.214396 3.40031,-0.647677 7.36733,-0.647677 z"
         style="text-align:start;text-anchor:start"
         id="path123848" />
      <path
         d="m 531.01157,48.769661 h 15.94906 v 6.314857 h -15.94906 v 19.430328 q 0,3.157428 0.48576,5.262381 0.48576,2.023992 1.45728,3.238388 0.97151,1.133436 2.42879,1.619194 1.45727,0.485758 3.4003,0.485758 3.40031,0 5.4243,-0.728637 2.10496,-0.809597 2.91455,-1.133436 l 1.45728,6.233897 q -1.13344,0.566718 -3.96703,1.376315 -2.83359,0.890556 -6.47677,0.890556 -4.29087,0 -7.12446,-1.052476 -2.75263,-1.133435 -4.45278,-3.319347 -1.70015,-2.185912 -2.42879,-5.343341 -0.64768,-3.238388 -0.64768,-7.448292 V 37.030504 l 7.52925,-1.295355 z"
         style="text-align:start;text-anchor:start"
         id="path123850" />
      <path
         d="m 564.04302,90.868706 h -7.52926 V 48.769661 h 7.52926 z m -3.80511,-49.709257 q -2.02399,0 -3.48127,-1.295355 -1.37631,-1.376315 -1.37631,-3.643187 0,-2.266871 1.37631,-3.562227 1.45728,-1.376315 3.48127,-1.376315 2.02399,0 3.40031,1.376315 1.45727,1.295356 1.45727,3.562227 0,2.266872 -1.45727,3.643187 -1.37632,1.295355 -3.40031,1.295355 z"
         style="text-align:start;text-anchor:start"
         id="path123852" />
      <path
         d="m 609.8661,48.769661 q -3.15743,11.820116 -7.44829,22.668716 -4.20991,10.8486 -8.17693,19.430329 h -6.80062 q -3.96702,-8.581729 -8.25789,-19.430329 -4.2099,-10.8486 -7.36733,-22.668716 h 8.09597 q 0.97152,3.967025 2.26687,8.500769 1.37632,4.452783 2.83359,8.905567 1.53823,4.371824 3.07647,8.500768 1.53823,4.128945 2.91455,7.367333 1.37631,-3.238388 2.91455,-7.367333 1.53823,-4.128944 2.99551,-8.500768 1.53823,-4.452784 2.83359,-8.905567 1.37631,-4.533744 2.34783,-8.500769 z"
         style="text-align:start;text-anchor:start"
         id="path123854" />
      <path
         d="m 614.15672,69.900143 q 0,-5.586219 1.61919,-9.715164 1.61919,-4.209905 4.29086,-6.962534 2.67167,-2.75263 6.15294,-4.128945 3.48127,-1.376315 7.12446,-1.376315 8.50076,0 13.03451,5.34334 4.53374,5.262381 4.53374,16.110981 0,0.485758 0,1.295355 0,0.728637 -0.081,1.376315 h -28.82165 q 0.48576,6.557736 3.8051,9.958043 3.31935,3.400308 10.36284,3.400308 3.96703,0 6.6387,-0.647678 2.75263,-0.728637 4.12894,-1.376315 l 1.05248,6.314857 q -1.37631,0.728637 -4.85758,1.538234 -3.40031,0.809597 -7.77213,0.809597 -5.50526,0 -9.55325,-1.619194 -3.96702,-1.700154 -6.55773,-4.614703 -2.59071,-2.914549 -3.88607,-6.881574 -1.21439,-4.047986 -1.21439,-8.824608 z m 28.90261,-4.128945 q 0.081,-5.100461 -2.59071,-8.338849 -2.59071,-3.319348 -7.20541,-3.319348 -2.59072,0 -4.61471,1.052476 -1.94303,0.971517 -3.31935,2.590711 -1.37631,1.619194 -2.18591,3.724146 -0.72863,2.104952 -0.97151,4.290864 z"
         style="text-align:start;text-anchor:start"
         id="path123856" />
      <path
         d="m 251.70127,179.92438 v -56.10507 h 34.24596 v 6.71965 h -26.39287 v 16.6777 h 23.47832 v 6.55774 h -23.47832 v 19.43032 h 28.41686 v 6.71966 z"
         style="text-align:start;text-anchor:start"
         id="path123858" />
      <path
         d="m 297.44344,139.03973 q 2.59071,-0.64768 6.80061,-1.37631 4.29086,-0.72864 9.87708,-0.72864 4.04799,0 6.80062,1.13343 2.75263,1.05248 4.6147,3.15743 0.56672,-0.4048 1.78112,-1.13343 1.21439,-0.72864 2.9955,-1.37632 1.78112,-0.72864 3.96703,-1.21439 2.18591,-0.56672 4.69566,-0.56672 4.85758,0 7.93405,1.45727 3.07647,1.37632 4.77663,3.96703 1.78111,2.59071 2.34783,6.15294 0.64767,3.56222 0.64767,7.77213 v 23.64023 h -7.52925 v -22.02104 q 0,-3.72415 -0.4048,-6.39582 -0.32383,-2.67167 -1.37631,-4.45278 -0.97152,-1.78111 -2.75263,-2.59071 -1.70015,-0.89056 -4.45278,-0.89056 -3.80511,0 -6.31486,1.05248 -2.42879,0.97152 -3.31935,1.78111 0.64768,2.10496 0.97152,4.61471 0.32384,2.50975 0.32384,5.26238 v 23.64023 h -7.52926 v -22.02104 q 0,-3.72415 -0.40479,-6.39582 -0.4048,-2.67167 -1.45728,-4.45278 -0.97152,-1.78111 -2.75263,-2.59071 -1.70015,-0.89056 -4.37182,-0.89056 -1.13344,0 -2.42879,0.081 -1.29536,0.081 -2.50975,0.24288 -1.13344,0.081 -2.10496,0.24288 -0.97151,0.16192 -1.29535,0.24288 v 35.54131 h -7.52925 z"
         style="text-align:start;text-anchor:start"
         id="path123860" />
      <path
         d="m 400.66691,178.70998 q -2.59071,0.64768 -6.88158,1.37632 -4.2099,0.72864 -9.79612,0.72864 -4.85758,0 -8.17693,-1.37632 -3.31935,-1.45727 -5.34334,-4.04798 -2.024,-2.59071 -2.91455,-6.07198 -0.89056,-3.56223 -0.89056,-7.85309 v -23.64024 h 7.52925 v 22.02104 q 0,7.69118 2.42879,11.01052 2.4288,3.31935 8.17693,3.31935 1.2144,0 2.50976,-0.081 1.29535,-0.081 2.42879,-0.16192 1.13343,-0.16192 2.02399,-0.24288 0.97152,-0.16192 1.37631,-0.32384 v -35.54131 h 7.52926 z"
         style="text-align:start;text-anchor:start"
         id="path123862" />
      <path
         d="m 426.25012,180.73398 q -6.96253,-0.16192 -9.87708,-2.99551 -2.91455,-2.83359 -2.91455,-8.82461 v -50.51885 l 7.52925,-1.29536 v 50.59981 q 0,1.86208 0.32384,3.07647 0.32384,1.2144 1.05247,1.94304 0.72864,0.72863 1.94304,1.13343 1.21439,0.32384 2.99551,0.56672 z"
         style="text-align:start;text-anchor:start"
         id="path123864" />
      <path
         d="m 449.97123,174.50008 q 2.67167,0 4.69566,-0.081 2.10495,-0.16192 3.48127,-0.48576 v -12.54875 q -0.8096,-0.4048 -2.67167,-0.64768 -1.78112,-0.32384 -4.37183,-0.32384 -1.70015,0 -3.64318,0.24288 -1.86208,0.24288 -3.48127,1.05248 -1.53823,0.72863 -2.59071,2.10495 -1.05248,1.29535 -1.05248,3.48127 0,4.04798 2.59071,5.66718 2.59071,1.53823 7.0435,1.53823 z m -0.64768,-37.72722 q 4.53374,0 7.61021,1.21439 3.15743,1.13344 5.0195,3.31935 1.94304,2.10495 2.75263,5.10046 0.8096,2.91455 0.8096,6.47678 v 26.3119 q -0.97152,0.16192 -2.75263,0.48576 -1.70015,0.24288 -3.88606,0.48576 -2.18592,0.24288 -4.77663,0.4048 -2.50975,0.24288 -5.0195,0.24288 -3.56223,0 -6.55773,-0.72864 -2.99551,-0.72864 -5.18143,-2.26687 -2.18591,-1.6192 -3.4003,-4.20991 -1.2144,-2.59071 -1.2144,-6.23389 0,-3.48127 1.37632,-5.99102 1.45727,-2.50975 3.88606,-4.04799 2.42879,-1.53823 5.66718,-2.26687 3.23839,-0.72864 6.80062,-0.72864 1.13343,0 2.34783,0.16192 1.21439,0.081 2.26687,0.32384 1.13344,0.16192 1.94303,0.32384 0.8096,0.16192 1.13344,0.24288 v -2.10495 q 0,-1.86208 -0.4048,-3.64319 -0.4048,-1.86207 -1.45728,-3.23839 -1.05247,-1.45727 -2.91454,-2.26687 -1.78112,-0.89056 -4.69567,-0.89056 -3.72414,0 -6.55773,0.56672 -2.75263,0.48576 -4.12895,1.05248 l -0.89055,-6.2339 q 1.45727,-0.64768 4.85758,-1.21439 3.40031,-0.64768 7.36733,-0.64768 z"
         style="text-align:start;text-anchor:start"
         id="path123866" />
      <path
         d="m 485.02672,137.82533 h 15.94907 v 6.31486 h -15.94907 v 19.43033 q 0,3.15743 0.48576,5.26238 0.48576,2.02399 1.45728,3.23839 0.97151,1.13343 2.42879,1.61919 1.45727,0.48576 3.40031,0.48576 3.4003,0 5.4243,-0.72864 2.10495,-0.80959 2.91455,-1.13343 l 1.45727,6.23389 q -1.13344,0.56672 -3.96703,1.37632 -2.83359,0.89056 -6.47677,0.89056 -4.29087,0 -7.12446,-1.05248 -2.75263,-1.13344 -4.45278,-3.31935 -1.70015,-2.18591 -2.42879,-5.34334 -0.64768,-3.23839 -0.64768,-7.44829 v -37.5653 l 7.52925,-1.29536 z"
         style="text-align:start;text-anchor:start"
         id="path123868" />
      <path
         d="m 546.55583,158.87486 q 0,5.0195 -1.45728,9.06748 -1.45727,4.04799 -4.12894,6.96254 -2.59071,2.91455 -6.2339,4.53374 -3.64319,1.53824 -7.93405,1.53824 -4.29086,0 -7.93405,-1.53824 -3.64319,-1.61919 -6.31486,-4.53374 -2.59071,-2.91455 -4.04798,-6.96254 -1.45728,-4.04798 -1.45728,-9.06748 0,-4.93854 1.45728,-8.98653 1.45727,-4.12894 4.04798,-7.04349 2.67167,-2.91455 6.31486,-4.45279 3.64319,-1.61919 7.93405,-1.61919 4.29086,0 7.93405,1.61919 3.64319,1.53824 6.2339,4.45279 2.67167,2.91455 4.12894,7.04349 1.45728,4.04799 1.45728,8.98653 z m -7.85309,0 q 0,-7.12446 -3.23839,-11.2534 -3.15743,-4.20991 -8.66269,-4.20991 -5.50526,0 -8.74365,4.20991 -3.15743,4.12894 -3.15743,11.2534 0,7.12445 3.15743,11.33436 3.23839,4.12894 8.74365,4.12894 5.50526,0 8.66269,-4.12894 3.23839,-4.20991 3.23839,-11.33436 z"
         style="text-align:start;text-anchor:start"
         id="path123870" />
      <path
         d="m 572.70567,136.93478 q 0.97152,0 2.18591,0.16192 1.29536,0.081 2.50975,0.32384 1.2144,0.16192 2.18591,0.40479 1.05248,0.16192 1.53824,0.32384 l -1.29536,6.55774 q -0.89055,-0.32384 -2.99551,-0.72864 -2.02399,-0.48576 -5.26238,-0.48576 -2.10495,0 -4.2099,0.48576 -2.02399,0.4048 -2.67167,0.56672 v 35.37939 h -7.52925 v -40.31793 q 2.67167,-0.97152 6.63869,-1.78112 3.96703,-0.89055 8.90557,-0.89055 z"
         style="text-align:start;text-anchor:start"
         id="path123872" />
    </g>
  </g>
</svg>
